<svg xmlns="http://www.w3.org/2000/svg" version="1.1" xmlns:xlink="http://www.w3.org/1999/xlink"
    xmlns:svgjs="http://svgjs.com/svgjs" width="512" height="512" x="0" y="0" viewBox="0 0 512 512"
    style="enable-background:new 0 0 512 512" xml:space="preserve" class=""><g><linearGradient id="a" x1="0" x2="512" y1="256" y2="256" gradientUnits="userSpaceOnUse"><stop offset="0" style="stop-color:#00F2FE" stop-color="#00f2fe"></stop><stop offset=".021" style="stop-color:#03EFFE" stop-color="#03effe"></stop><stop offset=".293" style="stop-color:#24D2FE" stop-color="#24d2fe"></stop><stop offset=".554" style="stop-color:#3CBDFE" stop-color="#3cbdfe"></stop><stop offset=".796" style="stop-color:#4AB0FE" stop-color="#4ab0fe"></stop><stop offset="1" style="stop-color:#4FACFE" stop-color="#4facfe"></stop></linearGradient><path d="M256 40v35.131M375.726 20v55.131M136.274 20v55.131M256 436.869V472m119.726-35.131V492m-239.452-55.131V492M472 256h-35.131M492 136.274h-55.131M75.131 256H40m35.131 119.726H20m55.131-239.452H20M283.048 329.73 228.18 184.341c-1.137-2.764-5.053-2.76-6.184.006L166.625 329.73m17.268-36.208h82.165m79.317-49.687v85.895m0-144.869h0m88.614 90.865V138.011c0-33.137-26.863-60-60-60H138.011c-33.137 0-60 26.863-60 60v235.977c0 33.137 26.863 60 60 60h235.977c32.556 0 59.056-25.929 59.975-58.263h58.036" style="fill:none;stroke:url(#a);stroke-width:40;stroke-linecap:round;stroke-linejoin:round;stroke-miterlimit:10;" fill="none" stroke-width="40" stroke-linecap="round" stroke-linejoin="round" stroke-miterlimit="10"></path></g></svg>